<mxfile host="app.diagrams.net" agent="Mozilla/5.0 (Windows NT 10.0; Win64; x64) AppleWebKit/537.36 (KHTML, like Gecko) Chrome/132.0.0.0 Safari/537.36" version="26.0.10">
  <diagram name="Page-1" id="2YBvvXClWsGukQMizWep">
    <mxGraphModel dx="1050" dy="522" grid="1" gridSize="10" guides="1" tooltips="1" connect="1" arrows="1" fold="1" page="1" pageScale="1" pageWidth="850" pageHeight="1100" math="0" shadow="0">
      <root>
        <mxCell id="0" />
        <mxCell id="1" parent="0" />
        <mxCell id="user" value="User" style="shape=umlLifeline;" vertex="1" parent="1">
          <mxGeometry x="40" y="40" width="100" height="400" as="geometry" />
        </mxCell>
        <mxCell id="backupManager" value="BackupManager" style="shape=umlLifeline;" vertex="1" parent="1">
          <mxGeometry x="180" y="40" width="100" height="400" as="geometry" />
        </mxCell>
        <mxCell id="fileManager" value="FileManager" style="shape=umlLifeline;" vertex="1" parent="1">
          <mxGeometry x="320" y="40" width="100" height="400" as="geometry" />
        </mxCell>
        <mxCell id="logger" value="Logger" style="shape=umlLifeline;" vertex="1" parent="1">
          <mxGeometry x="460" y="40" width="100" height="400" as="geometry" />
        </mxCell>
        <mxCell id="stateManager" value="StateManager" style="shape=umlLifeline;" vertex="1" parent="1">
          <mxGeometry x="600" y="40" width="100" height="400" as="geometry" />
        </mxCell>
        <mxCell id="startBackup" value="startBackup()" style="edgeStyle=elbowEdgeStyle;" edge="1" parent="1" source="user" target="backupManager">
          <mxGeometry relative="1" as="geometry" />
        </mxCell>
        <mxCell id="retrieveFiles" value="getFiles()" style="edgeStyle=elbowEdgeStyle;" edge="1" parent="1" source="backupManager" target="fileManager">
          <mxGeometry relative="1" as="geometry" />
        </mxCell>
        <mxCell id="logStart" value="logAction()" style="edgeStyle=elbowEdgeStyle;" edge="1" parent="1">
          <mxGeometry relative="1" as="geometry">
            <mxPoint x="90" y="160" as="sourcePoint" />
            <mxPoint x="230" y="160" as="targetPoint" />
          </mxGeometry>
        </mxCell>
        <mxCell id="updateState" value="updateState()" style="edgeStyle=elbowEdgeStyle;" edge="1" parent="1" source="backupManager" target="stateManager">
          <mxGeometry relative="1" as="geometry">
            <Array as="points">
              <mxPoint x="490" y="170" />
            </Array>
          </mxGeometry>
        </mxCell>
        <mxCell id="processFile" value="copyFile()" style="edgeStyle=elbowEdgeStyle;" edge="1" parent="1" source="fileManager" target="backupManager">
          <mxGeometry relative="1" as="geometry">
            <mxPoint as="offset" />
          </mxGeometry>
        </mxCell>
        <mxCell id="logCompletion" value="logCompletion()" style="edgeStyle=elbowEdgeStyle;" edge="1" parent="1">
          <mxGeometry x="-0.2222" y="-50" relative="1" as="geometry">
            <mxPoint x="280" y="330" as="sourcePoint" />
            <mxPoint x="460" y="330" as="targetPoint" />
            <mxPoint as="offset" />
          </mxGeometry>
        </mxCell>
        <mxCell id="finalState" value="finalizeState()" style="edgeStyle=elbowEdgeStyle;" edge="1" parent="1">
          <mxGeometry relative="1" as="geometry">
            <mxPoint x="280" y="280" as="sourcePoint" />
            <mxPoint x="600" y="280" as="targetPoint" />
          </mxGeometry>
        </mxCell>
        <mxCell id="endBackup" value="notifyCompletion()" style="edgeStyle=elbowEdgeStyle;" edge="1" parent="1" source="backupManager" target="user">
          <mxGeometry relative="1" as="geometry" />
        </mxCell>
      </root>
    </mxGraphModel>
  </diagram>
</mxfile>
